<svg xmlns="http://www.w3.org/2000/svg" fill="none" class="undefined icon icon--brasil-flag fill-undefined" viewBox="0 0 152.8000030517578 100" style="width: 21px; height: 16px;"><g clip-path="url(#clip0_610_1496)"><path fill="#009C3B" d="M152.8 0H0v100h152.8V0z"></path><path fill="#FFDF00" d="M10.7 49.9l65.7 42.7 65.7-42.7L76.4 7.2 10.7 49.9z"></path><path fill="#002776" d="M53.7 46.1l43.6 13.2c-.6 1.4-1.4 2.7-2.3 3.9-1.5 2.1-3.4 4-5.6 5.5-3.8 2.7-8.4 4.1-13.1 4.1-6.1 0-11.9-2.4-16.3-6.7-4.3-4.3-6.7-10.2-6.7-16.3v-.5c.2-1.1.3-2.1.4-3.2zM99.4 49.8c0 1.3-.1 2.5-.3 3.7L55.5 40.4c4.3-9.6 14.6-15.1 25.1-13.1 10.9 2 18.8 11.5 18.8 22.5z"></path><path fill="#fff" d="M99.1 53.6c-.3 2-.9 3.9-1.7 5.7L53.7 46.1c.2-1.5.7-3 1.2-4.5.2-.4.3-.9.5-1.3l43.7 13.3z"></path></g><defs><clipPath id="clip0_610_1496"><path fill="#fff" d="M0 0h152.8v100H0z"></path></clipPath></defs></svg>