<svg xmlns="http://www.w3.org/2000/svg" fill="none" class="undefined icon icon--usa-flag fill-undefined" viewBox="0 0 152.8000030517578 100" style="width: 21px; height: 16px;"><g clip-path="url(#clip0_610_1498)"><path fill="#fff" d="M152.8 0H0v100h152.8V0z"></path><path fill="#FF4B55" d="M152.8 0H71v7.8h81.8V0zM152.8 15.5H71v7.8h81.8v-7.8zM152.8 30.7H71v7.8h81.8v-7.8zM152.8 46.3H71v7.8h81.8v-7.8zM152.8 61.5H0v7.8h152.8v-7.8zM152.8 77H0v7.8h152.8V77zM152.8 92.2H0v7.8h152.8v-7.8z"></path><path fill="#41479B" d="M71 0H0v54h71V0z"></path><path fill="#F5F5F5" d="M10.1 37.9l1.1 3.4h3.5c.5 0 .6.6.3.9l-2.8 2.1 1.1 3.4c.1.4-.4.8-.7.5l-2.8-2.1L7 48.2c-.4.3-.9-.1-.7-.5l1.1-3.4-2.8-2.1c-.4-.3-.2-.9.3-.9h3.5l1.1-3.4c-.1-.4.5-.4.6 0zM10.1 21.8l1.1 3.4h3.5c.5 0 .6.6.3.9l-2.8 2.1 1.1 3.4c.1.4-.4.8-.7.5L9.8 30 7 32.1c-.4.3-.9-.1-.7-.5l1.1-3.4-2.8-2.1c-.4-.3-.2-.9.3-.9h3.5l1.1-3.4c-.1-.4.5-.4.6 0zM10.1 5.7l1.1 3.4h3.5c.5 0 .6.6.3.9l-2.8 2.1 1.1 3.4c.1.4-.4.8-.7.5l-2.9-2-2.8 2c-.4.3-.9-.1-.7-.5l1.1-3.4L4.4 10c-.4-.3-.2-.9.2-.9h3.5l1.1-3.4c.2-.4.8-.4.9 0zM28.1 37.9l1.1 3.4h3.5c.5 0 .6.6.3.9l-2.8 2.1 1.1 3.4c.1.4-.4.8-.7.5l-2.8-2.1-2.8 2.1c-.4.3-.9-.1-.7-.5l1.1-3.4-2.8-2.1c-.4-.3-.2-.9.3-.9h3.5l1.1-3.4c-.2-.4.4-.4.6 0zM28.1 21.8l1.1 3.4h3.5c.5 0 .6.6.3.9l-2.8 2.1 1.1 3.4c.1.4-.4.8-.7.5L27.8 30 25 32.1c-.4.3-.9-.1-.7-.5l1.1-3.4-2.8-2.1c-.4-.3-.2-.9.3-.9h3.5l1.1-3.4c-.2-.4.4-.4.6 0zM28.1 5.7l1.1 3.4h3.5c.5 0 .6.6.3.9l-2.8 2.1 1.1 3.4c.1.4-.4.8-.7.5l-3-2-2.8 2c-.4.3-.9-.1-.7-.5l1.1-3.4-2.9-2.1c-.4-.3-.2-.9.3-.9h3.5l1.1-3.4c.1-.4.7-.4.9 0zM46 37.9l1.1 3.4h3.5c.5 0 .6.6.3.9L48 44.3l1.1 3.4c.1.4-.4.8-.7.5l-2.8-2.1-2.8 2.1c-.4.3-.9-.1-.7-.5l1.1-3.4-2.8-2.1c-.4-.3-.2-.9.3-.9h3.5l1.1-3.4c-.1-.4.5-.4.7 0zM46 21.8l1.1 3.4h3.5c.5 0 .6.6.3.9L48 28.2l1.1 3.4c.1.4-.4.8-.7.5L45.6 30l-2.8 2.1c-.4.3-.9-.1-.7-.5l1.1-3.4-2.8-2.1c-.4-.3-.2-.9.3-.9h3.5l1.1-3.4c-.1-.4.5-.4.7 0zM46 5.7l1.1 3.4h3.5c.5 0 .6.6.3.9L48 12.1l1.1 3.4c.1.4-.4.8-.7.5l-2.9-2-2.8 2c-.4.3-.9-.1-.7-.5l1.1-3.4-2.9-2.1c-.4-.3-.2-.9.3-.9H44l1.1-3.4c.1-.4.7-.4.9 0zM63.9 37.9l1.1 3.4h3.5c.5 0 .6.6.3.9L66 44.3l1.1 3.4c.1.4-.4.8-.7.5l-2.8-2.1-2.8 2.1c-.4.3-.9-.1-.7-.5l1.1-3.4-2.8-2.1c-.4-.3-.2-.9.3-.9h3.5l1.1-3.4c-.2-.4.4-.4.6 0zM63.9 21.8l1.1 3.4h3.5c.5 0 .6.6.3.9L66 28.2l1.1 3.4c.1.4-.4.8-.7.5L63.6 30l-2.8 2.1c-.4.3-.9-.1-.7-.5l1.1-3.4-2.8-2.1c-.4-.3-.2-.9.3-.9h3.5l1.1-3.4c-.2-.4.4-.4.6 0zM63.9 5.7L65 9.1h3.5c.5 0 .6.6.3.9L66 12.1l1.1 3.4c.1.4-.4.8-.7.5l-3-2-2.8 2c-.4.3-.9-.1-.7-.5l1.1-3.4-2.9-2.1c-.4-.3-.2-.9.3-.9h3.5L63 5.7c.1-.4.7-.4.9 0z"></path></g><defs><clipPath id="clip0_610_1498"><path fill="#fff" d="M0 0h152.8v100H0z"></path></clipPath></defs></svg>